<?xml version="1.0" encoding="UTF-8" standalone="no"?>
<!DOCTYPE svg PUBLIC "-//W3C//DTD SVG 1.1//EN"
 "http://www.w3.org/Graphics/SVG/1.1/DTD/svg11.dtd">
<!-- Generated by graphviz version 2.40.1 (0)
 -->
<!-- Title: auth_DB Pages: 1 -->
<svg width="702pt" height="273pt"
 viewBox="0.00 0.00 702.00 273.00" xmlns="http://www.w3.org/2000/svg" xmlns:xlink="http://www.w3.org/1999/xlink">
<g id="graph0" class="graph" transform="scale(1 1) rotate(0) translate(4 269)">
<title>auth_DB</title>
<polygon fill="#ffffff" stroke="transparent" points="-4,4 -4,-269 698,-269 698,4 -4,4"/>
<!-- schema_migrations -->
<g id="node1" class="node">
<title>schema_migrations</title>
<polygon fill="#efefef" stroke="transparent" points="43.5,-144.5 43.5,-178.5 284.5,-178.5 284.5,-144.5 43.5,-144.5"/>
<polygon fill="none" stroke="#000000" points="43.5,-144.5 43.5,-178.5 284.5,-178.5 284.5,-144.5 43.5,-144.5"/>
<text text-anchor="start" x="50.5" y="-158.1" font-family="Arial Bold" font-size="18.00" fill="#000000">schema_migrations</text>
<text text-anchor="start" x="178.5" y="-158.1" font-family="Arial" font-size="14.00" fill="#000000"> </text>
<text text-anchor="start" x="186.5" y="-158.1" font-family="Arial" font-size="14.00" fill="#666666">[BASE TABLE]</text>
<polygon fill="none" stroke="#000000" points="43.5,-115.5 43.5,-144.5 284.5,-144.5 284.5,-115.5 43.5,-115.5"/>
<text text-anchor="start" x="50.5" y="-127.3" font-family="Arial" font-size="14.00" fill="#000000">version </text>
<text text-anchor="start" x="111.5" y="-127.3" font-family="Arial" font-size="14.00" fill="#666666">[bigint(20)]</text>
<polygon fill="none" stroke="#000000" points="43.5,-86.5 43.5,-115.5 284.5,-115.5 284.5,-86.5 43.5,-86.5"/>
<text text-anchor="start" x="50.5" y="-98.3" font-family="Arial" font-size="14.00" fill="#000000">dirty </text>
<text text-anchor="start" x="96.5" y="-98.3" font-family="Arial" font-size="14.00" fill="#666666">[tinyint(1)]</text>
</g>
<!-- users -->
<g id="node2" class="node">
<title>users</title>
<polygon fill="#efefef" stroke="transparent" points="388.5,-187.5 388.5,-221.5 651.5,-221.5 651.5,-187.5 388.5,-187.5"/>
<polygon fill="none" stroke="#000000" points="388.5,-187.5 388.5,-221.5 651.5,-221.5 651.5,-187.5 388.5,-187.5"/>
<text text-anchor="start" x="451.5" y="-201.1" font-family="Arial Bold" font-size="18.00" fill="#000000">users</text>
<text text-anchor="start" x="489.5" y="-201.1" font-family="Arial" font-size="14.00" fill="#000000"> </text>
<text text-anchor="start" x="497.5" y="-201.1" font-family="Arial" font-size="14.00" fill="#666666">[BASE TABLE]</text>
<polygon fill="none" stroke="#000000" points="388.5,-158.5 388.5,-187.5 651.5,-187.5 651.5,-158.5 388.5,-158.5"/>
<text text-anchor="start" x="395.5" y="-170.3" font-family="Arial" font-size="14.00" fill="#000000">id </text>
<text text-anchor="start" x="418.5" y="-170.3" font-family="Arial" font-size="14.00" fill="#666666">[int(11)]</text>
<polygon fill="none" stroke="#000000" points="388.5,-129.5 388.5,-158.5 651.5,-158.5 651.5,-129.5 388.5,-129.5"/>
<text text-anchor="start" x="395.5" y="-141.3" font-family="Arial" font-size="14.00" fill="#000000">email </text>
<text text-anchor="start" x="441.5" y="-141.3" font-family="Arial" font-size="14.00" fill="#666666">[varchar(255)]</text>
<polygon fill="none" stroke="#000000" points="388.5,-100.5 388.5,-129.5 651.5,-129.5 651.5,-100.5 388.5,-100.5"/>
<text text-anchor="start" x="395.5" y="-112.3" font-family="Arial" font-size="14.00" fill="#000000">encrypted_password </text>
<text text-anchor="start" x="538.5" y="-112.3" font-family="Arial" font-size="14.00" fill="#666666">[varchar(255)]</text>
<polygon fill="none" stroke="#000000" points="388.5,-71.5 388.5,-100.5 651.5,-100.5 651.5,-71.5 388.5,-71.5"/>
<text text-anchor="start" x="395.5" y="-83.3" font-family="Arial" font-size="14.00" fill="#000000">created_at </text>
<text text-anchor="start" x="478.5" y="-83.3" font-family="Arial" font-size="14.00" fill="#666666">[datetime]</text>
<polygon fill="none" stroke="#000000" points="388.5,-42.5 388.5,-71.5 651.5,-71.5 651.5,-42.5 388.5,-42.5"/>
<text text-anchor="start" x="395.5" y="-54.3" font-family="Arial" font-size="14.00" fill="#000000">updated_at </text>
<text text-anchor="start" x="478.5" y="-54.3" font-family="Arial" font-size="14.00" fill="#666666">[datetime]</text>
</g>
</g>
</svg>
