<?xml version="1.0" encoding="UTF-8" standalone="no"?>
<!DOCTYPE svg PUBLIC "-//W3C//DTD SVG 1.1//EN"
 "http://www.w3.org/Graphics/SVG/1.1/DTD/svg11.dtd">
<!-- Generated by graphviz version 2.40.1 (0)
 -->
<!-- Title: users Pages: 1 -->
<svg width="363pt" height="279pt"
 viewBox="0.00 0.00 363.00 279.00" xmlns="http://www.w3.org/2000/svg" xmlns:xlink="http://www.w3.org/1999/xlink">
<g id="graph0" class="graph" transform="scale(1 1) rotate(0) translate(4 275)">
<title>users</title>
<polygon fill="#ffffff" stroke="transparent" points="-4,4 -4,-275 359,-275 359,4 -4,4"/>
<!-- users -->
<g id="node1" class="node">
<title>users</title>
<polygon fill="#efefef" stroke="transparent" points="46.5,-190.5 46.5,-224.5 309.5,-224.5 309.5,-190.5 46.5,-190.5"/>
<polygon fill="none" stroke="#000000" points="46.5,-190.5 46.5,-224.5 309.5,-224.5 309.5,-190.5 46.5,-190.5"/>
<text text-anchor="start" x="109.5" y="-204.1" font-family="Arial Bold" font-size="18.00" fill="#000000">users</text>
<text text-anchor="start" x="147.5" y="-204.1" font-family="Arial" font-size="14.00" fill="#000000"> </text>
<text text-anchor="start" x="155.5" y="-204.1" font-family="Arial" font-size="14.00" fill="#666666">[BASE TABLE]</text>
<polygon fill="none" stroke="#000000" points="46.5,-161.5 46.5,-190.5 309.5,-190.5 309.5,-161.5 46.5,-161.5"/>
<text text-anchor="start" x="53.5" y="-173.3" font-family="Arial" font-size="14.00" fill="#000000">id </text>
<text text-anchor="start" x="76.5" y="-173.3" font-family="Arial" font-size="14.00" fill="#666666">[int(11)]</text>
<polygon fill="none" stroke="#000000" points="46.5,-132.5 46.5,-161.5 309.5,-161.5 309.5,-132.5 46.5,-132.5"/>
<text text-anchor="start" x="53.5" y="-144.3" font-family="Arial" font-size="14.00" fill="#000000">email </text>
<text text-anchor="start" x="99.5" y="-144.3" font-family="Arial" font-size="14.00" fill="#666666">[varchar(255)]</text>
<polygon fill="none" stroke="#000000" points="46.5,-103.5 46.5,-132.5 309.5,-132.5 309.5,-103.5 46.5,-103.5"/>
<text text-anchor="start" x="53.5" y="-115.3" font-family="Arial" font-size="14.00" fill="#000000">encrypted_password </text>
<text text-anchor="start" x="196.5" y="-115.3" font-family="Arial" font-size="14.00" fill="#666666">[varchar(255)]</text>
<polygon fill="none" stroke="#000000" points="46.5,-74.5 46.5,-103.5 309.5,-103.5 309.5,-74.5 46.5,-74.5"/>
<text text-anchor="start" x="53.5" y="-86.3" font-family="Arial" font-size="14.00" fill="#000000">created_at </text>
<text text-anchor="start" x="136.5" y="-86.3" font-family="Arial" font-size="14.00" fill="#666666">[datetime]</text>
<polygon fill="none" stroke="#000000" points="46.5,-45.5 46.5,-74.5 309.5,-74.5 309.5,-45.5 46.5,-45.5"/>
<text text-anchor="start" x="53.5" y="-57.3" font-family="Arial" font-size="14.00" fill="#000000">updated_at </text>
<text text-anchor="start" x="136.5" y="-57.3" font-family="Arial" font-size="14.00" fill="#666666">[datetime]</text>
<polygon fill="none" stroke="#000000" stroke-width="3" points="44.5,-44.5 44.5,-226.5 310.5,-226.5 310.5,-44.5 44.5,-44.5"/>
</g>
</g>
</svg>
